<?xml version="1.0" encoding="utf-8"?>
<!-- Generator: Adobe Illustrator 15.1.0, SVG Export Plug-In . SVG Version: 6.00 Build 0)  -->
<!DOCTYPE svg PUBLIC "-//W3C//DTD SVG 1.0//EN" "http://www.w3.org/TR/2001/REC-SVG-20010904/DTD/svg10.dtd">
<svg version="1.0" id="Ebene_1" xmlns="http://www.w3.org/2000/svg" xmlns:xlink="http://www.w3.org/1999/xlink" x="0px" y="0px"
	 width="200px" height="200.001px" viewBox="0 0 200 200.001" enable-background="new 0 0 200 200.001" xml:space="preserve">
<g>
	<circle fill="#F07E1B" cx="100" cy="100" r="100"/>
	<g>
		<circle fill="#FFFFFF" cx="100" cy="35.819" r="14.926"/>
		<path fill="#FFFFFF" d="M164.772,50.731c-0.832-4.037-4.778-6.636-8.815-5.803L100,56.465L44.043,44.928
			c-4.037-0.835-7.983,1.765-8.815,5.803c-0.833,4.036,1.765,7.983,5.803,8.815l41.805,8.62v45.563l-11.782,56.387
			c-0.843,4.034,1.743,7.989,5.778,8.831c0.515,0.108,1.028,0.159,1.535,0.159c3.458,0,6.562-2.418,7.297-5.937l12.015-57.499
			c0.224-1.189,1.086-2.239,2.323-2.239s2.123,1.05,2.323,2.239l12.015,57.499c0.735,3.519,3.838,5.937,7.297,5.937
			c0.505,0,1.02-0.051,1.535-0.159c4.035-0.842,6.622-4.797,5.778-8.831l-11.783-56.391V68.166l41.806-8.62
			C163.008,58.714,165.604,54.767,164.772,50.731z"/>
	</g>
	<g>
		<path fill="#FFFFFF" d="M24.419,109.879c-0.087-0.428-0.155-0.812-0.204-1.152s-0.083-0.68-0.102-1.02
			c-0.554,0.709-1.246,1.299-2.077,1.771c-0.831,0.471-1.718,0.707-2.66,0.707c-1.642,0-2.891-0.401-3.746-1.203
			c-0.854-0.802-1.282-1.931-1.282-3.389c0-1.496,0.604-2.65,1.814-3.461s2.869-1.217,4.978-1.217h2.959v-1.836
			c0-0.923-0.292-1.654-0.875-2.194c-0.583-0.539-1.394-0.809-2.434-0.809c-0.719,0-1.354,0.092-1.902,0.277
			c-0.549,0.184-0.993,0.437-1.333,0.758l-0.306,1.662h-2.215v-3.061c0.719-0.573,1.588-1.033,2.609-1.377
			c1.02-0.345,2.128-0.517,3.323-0.517c1.788,0,3.236,0.457,4.344,1.37c1.107,0.913,1.662,2.22,1.662,3.921v7.594
			c0,0.204,0.002,0.403,0.007,0.598c0.005,0.194,0.017,0.389,0.036,0.583l1.166,0.16v1.837H24.419z M19.798,107.78
			c0.953,0,1.822-0.228,2.609-0.685s1.351-1.006,1.691-1.647v-2.595h-3.061c-1.175,0-2.106,0.272-2.791,0.816
			s-1.028,1.205-1.028,1.982c0,0.69,0.214,1.217,0.642,1.582C18.288,107.598,18.933,107.78,19.798,107.78z"/>
		<path fill="#FFFFFF" d="M31.036,108.042l3.28-0.408V91.732l-3.338,0.058v-1.792l6.209-1.341v18.978l3.265,0.408v1.837h-9.416
			V108.042z"/>
		<path fill="#FFFFFF" d="M43.338,108.042l3.279-0.408V91.732L43.28,91.79v-1.792l6.209-1.341v18.978l3.265,0.408v1.837h-9.416
			V108.042z"/>
		<path fill="#FFFFFF" d="M70.158,95.959l-1.414,0.219l-6.005,16.121c-0.398,1.059-0.971,1.982-1.72,2.77s-1.754,1.181-3.017,1.181
			c-0.224,0-0.515-0.027-0.875-0.081s-0.636-0.104-0.831-0.153l0.292-2.259c-0.058-0.009,0.115,0,0.518,0.029
			c0.403,0.029,0.658,0.043,0.765,0.043c0.612,0,1.108-0.264,1.487-0.794c0.379-0.53,0.709-1.139,0.991-1.829l0.685-1.632
			L55.83,96.192l-1.443-0.233v-1.851h6.37v1.851l-1.778,0.292l2.726,7.783l0.525,2.012h0.087l3.279-9.795l-1.792-0.292v-1.851h6.355
			V95.959z"/>
	</g>
	<g>
		<path fill="#FFFFFF" d="M136.975,107.94c0.953,0,1.791-0.293,2.515-0.882c0.724-0.588,1.086-1.31,1.086-2.164h2.58l0.029,0.087
			c0.049,1.36-0.557,2.567-1.814,3.622c-1.259,1.054-2.724,1.582-4.396,1.582c-2.293,0-4.044-0.749-5.254-2.245
			c-1.21-1.496-1.815-3.376-1.815-5.641v-0.612c0-2.245,0.607-4.118,1.822-5.619c1.215-1.501,2.964-2.252,5.247-2.252
			c1.264,0,2.398,0.209,3.404,0.626c1.005,0.417,1.838,0.991,2.499,1.72l0.132,3.498h-2.289l-0.626-2.478
			c-0.341-0.33-0.778-0.598-1.313-0.802c-0.534-0.204-1.137-0.306-1.808-0.306c-1.506,0-2.582,0.542-3.228,1.625
			s-0.969,2.412-0.969,3.986v0.612c0,1.613,0.321,2.957,0.962,4.03C134.38,107.403,135.459,107.94,136.975,107.94z"/>
		<path fill="#FFFFFF" d="M145.59,88.992v-1.851h5.247v20.494l2.376,0.408v1.837h-7.623v-1.837l2.375-0.408V89.4L145.59,88.992z"/>
		<path fill="#FFFFFF" d="M166.666,107.546c-0.496,0.846-1.135,1.497-1.917,1.954c-0.782,0.457-1.684,0.685-2.703,0.685
			c-1.711,0-3.047-0.549-4.009-1.647c-0.962-1.098-1.443-2.808-1.443-5.13v-7.04l-1.807-0.408v-1.851h1.807h2.872v9.328
			c0,1.682,0.247,2.837,0.743,3.469c0.495,0.632,1.268,0.947,2.317,0.947c1.021,0,1.863-0.206,2.529-0.619
			c0.665-0.414,1.168-0.999,1.508-1.756v-9.11l-2.113-0.408v-1.851h2.113h2.872v13.526l1.808,0.408v1.837h-4.388L166.666,107.546z"
			/>
		<path fill="#FFFFFF" d="M187.946,102.591c0,2.274-0.546,4.108-1.64,5.502c-1.093,1.394-2.597,2.092-4.511,2.092
			c-1.03,0-1.924-0.197-2.683-0.59c-0.758-0.394-1.39-0.975-1.895-1.742l-0.263,2.026h-2.478V89.4l-2.376-0.408v-1.851h5.247v8.833
			c0.496-0.7,1.11-1.234,1.844-1.604c0.734-0.37,1.592-0.554,2.573-0.554c1.943,0,3.459,0.777,4.548,2.332
			c1.088,1.554,1.632,3.6,1.632,6.136V102.591z M185.061,102.285c0-1.817-0.33-3.294-0.991-4.431
			c-0.661-1.137-1.671-1.705-3.031-1.705c-0.885,0-1.631,0.213-2.238,0.641c-0.606,0.428-1.091,1.001-1.45,1.72v6.967
			c0.359,0.729,0.848,1.307,1.465,1.734c0.618,0.428,1.368,0.641,2.252,0.641c1.351,0,2.354-0.481,3.011-1.443
			c0.655-0.962,0.983-2.235,0.983-3.819V102.285z"/>
	</g>
</g>
</svg>
